<svg viewBox="0 0 64 18" xmlns="http://www.w3.org/2000/svg">
  <g fill="#000">
    <!-- M -->
    <path d="M2 2.5v13h3v-8l2.5 4h1l2.5-4v8h3v-13h-3l-3 5.5-3-5.5z"/>
    <!-- e -->
    <path d="M18 5.5c-1.5 0-2.7.4-3.6 1.2-.9.8-1.4 2-1.4 3.3 0 1.4.5 2.5 1.4 3.3.9.8 2.1 1.2 3.6 1.2 1.2 0 2.2-.3 3-.8.8-.5 1.3-1.3 1.5-2.2h-3c-.3.5-.8.7-1.5.7-.5 0-.9-.1-1.2-.4-.3-.3-.5-.7-.6-1.2h6.3v-1c0-1.3-.4-2.4-1.3-3.2-.9-.6-2-1-3.2-1zm-1.8 3.8c.1-.5.3-.9.6-1.1.3-.3.7-.4 1.2-.4.5 0 .9.1 1.2.4.3.3.5.6.6 1.1h-3.6z"/>
    <!-- e -->
    <path d="M28 5.5c-1.5 0-2.7.4-3.6 1.2-.9.8-1.4 2-1.4 3.3 0 1.4.5 2.5 1.4 3.3.9.8 2.1 1.2 3.6 1.2 1.2 0 2.2-.3 3-.8.8-.5 1.3-1.3 1.5-2.2h-3c-.3.5-.8.7-1.5.7-.5 0-.9-.1-1.2-.4-.3-.3-.5-.7-.6-1.2h6.3v-1c0-1.3-.4-2.4-1.3-3.2-.9-.6-2-1-3.2-1zm-1.8 3.8c.1-.5.3-.9.6-1.1.3-.3.7-.4 1.2-.4.5 0 .9.1 1.2.4.3.3.5.6.6 1.1h-3.6z"/>
    <!-- t -->
    <path d="M38 3.5h-3v2h-1.5v2.5H35v4.5c0 1.1.3 1.9.8 2.4.5.5 1.4.7 2.7.7.6 0 1.1 0 1.5-.1v-2.5c-.2 0-.4.1-.7.1-.4 0-.7-.1-.8-.2-.1-.1-.2-.4-.2-.8V8h1.7V5.5H38v-2z"/>
    <!-- - -->
    <path d="M44 8.5v2.5h6v-2.5z"/>
    <!-- x -->
    <path d="M54 5.5l-2.5 3.5 2.8 4.5h3.2l-2.8-4.5 2.5-3.5h-3.2zm-4.7 0l2.5 3.5-2.8 4.5h3.2l2.8-4.5-2.5-3.5h-3.2z"/>
  </g>
</svg>
